<?xml version="1.0" encoding="UTF-8"?>
<svg id="a" xmlns="http://www.w3.org/2000/svg" width="4.185in" height=".72in" viewBox="0 0 301.312 51.84">
  <path d="m0,.855h20.025c3.964,0,6.92.166,8.868.496,1.948.331,3.69,1.02,5.228,2.068,1.538,1.048,2.819,2.443,3.844,4.186,1.025,1.743,1.538,3.696,1.538,5.861,0,2.347-.632,4.499-1.897,6.459s-2.978,3.429-5.143,4.408c3.052.889,5.399,2.403,7.04,4.545s2.46,4.659,2.46,7.552c0,2.279-.53,4.494-1.589,6.647s-2.506,3.873-4.34,5.16c-1.834,1.288-4.095,2.08-6.784,2.374-1.687.183-5.753.296-12.199.342H0V.855Zm10.115,8.338v11.585h6.63c3.941,0,6.391-.057,7.347-.171,1.731-.205,3.092-.803,4.083-1.794s1.487-2.295,1.487-3.913c0-1.549-.427-2.807-1.282-3.776-.854-.968-2.125-1.555-3.81-1.76-1.003-.114-3.884-.171-8.645-.171,0,0-5.81,0-5.81,0Zm0,19.923v13.395h9.363c3.645,0,5.957-.103,6.937-.308,1.504-.273,2.728-.94,3.673-2s1.418-2.477,1.418-4.254c0-1.504-.365-2.779-1.094-3.827s-1.783-1.812-3.161-2.29c-1.379-.479-4.369-.718-8.97-.718h-8.167.002Z" stroke-width="0"/>
  <path d="m43.965,34.652l9.842-.957c.592,3.303,1.794,5.73,3.605,7.278,1.812,1.55,4.254,2.324,7.33,2.324,3.257,0,5.712-.689,7.364-2.068,1.652-1.378,2.477-2.99,2.477-4.835,0-1.185-.348-2.193-1.042-3.024-.695-.832-1.909-1.555-3.639-2.17-1.185-.41-3.884-1.139-8.099-2.188-5.422-1.344-9.227-2.995-11.414-4.955-3.075-2.756-4.613-6.117-4.613-10.081,0-2.551.723-4.938,2.17-7.159s3.531-3.913,6.254-5.075c2.722-1.162,6.009-1.743,9.859-1.743,6.288,0,11.021,1.379,14.199,4.135,3.178,2.756,4.847,6.437,5.006,11.038l-10.115.444c-.433-2.574-1.362-4.425-2.785-5.553s-3.56-1.692-6.408-1.692c-2.938,0-5.24.604-6.903,1.812-1.071.775-1.606,1.812-1.606,3.109,0,1.185.501,2.199,1.504,3.041,1.276,1.071,4.374,2.188,9.295,3.349s8.56,2.363,10.918,3.605c2.358,1.242,4.203,2.938,5.536,5.092s2,4.813,2,7.979c0,2.87-.798,5.559-2.392,8.064-1.595,2.506-3.85,4.369-6.767,5.587-2.916,1.219-6.55,1.829-10.901,1.829-6.334,0-11.198-1.464-14.592-4.391-3.395-2.927-5.422-7.193-6.083-12.797h-.001Z" stroke-width="0"/>
  <path d="m86.702,34.652l9.842-.957c.592,3.303,1.794,5.73,3.605,7.278,1.812,1.55,4.254,2.324,7.33,2.324,3.257,0,5.712-.689,7.364-2.068,1.652-1.378,2.477-2.99,2.477-4.835,0-1.185-.348-2.193-1.042-3.024-.695-.832-1.909-1.555-3.639-2.17-1.185-.41-3.884-1.139-8.099-2.188-5.422-1.344-9.227-2.995-11.414-4.955-3.075-2.756-4.613-6.117-4.613-10.081,0-2.551.723-4.938,2.17-7.159s3.531-3.913,6.254-5.075c2.722-1.162,6.009-1.743,9.859-1.743,6.288,0,11.021,1.379,14.199,4.135,3.178,2.756,4.847,6.437,5.006,11.038l-10.115.444c-.433-2.574-1.362-4.425-2.785-5.553s-3.56-1.692-6.408-1.692c-2.938,0-5.24.604-6.903,1.812-1.071.775-1.606,1.812-1.606,3.109,0,1.185.501,2.199,1.504,3.041,1.276,1.071,4.374,2.188,9.295,3.349s8.56,2.363,10.918,3.605c2.358,1.242,4.203,2.938,5.536,5.092s2,4.813,2,7.979c0,2.87-.798,5.559-2.392,8.064-1.595,2.506-3.85,4.369-6.767,5.587-2.916,1.219-6.55,1.829-10.901,1.829-6.334,0-11.198-1.464-14.592-4.391-3.395-2.927-5.422-7.193-6.083-12.797h-.001Z" stroke-width="0"/>
  <path d="m131.44,50.952V.855h34.344v8.475h-24.228v11.857h20.914v8.475h-20.914v21.289h-10.116Z" stroke-width="0"/>
  <path d="m191.524,32.533v-8.44h21.802v19.957c-2.119,2.051-5.189,3.856-9.209,5.416-4.021,1.561-8.093,2.341-12.216,2.341-5.24,0-9.808-1.099-13.703-3.297s-6.824-5.342-8.782-9.432c-1.96-4.089-2.938-8.537-2.938-13.344,0-5.217,1.094-9.853,3.28-13.908,2.188-4.055,5.388-7.164,9.602-9.329C182.572.833,186.57,0,191.354,0c6.22,0,11.078,1.305,14.575,3.913,3.497,2.608,5.747,6.214,6.749,10.816l-10.047,1.88c-.707-2.46-2.034-4.402-3.981-5.827-1.948-1.424-4.38-2.136-7.295-2.136-4.42,0-7.934,1.401-10.542,4.203-2.608,2.802-3.913,6.96-3.913,12.473,0,5.946,1.321,10.406,3.964,13.378,2.642,2.973,6.105,4.459,10.389,4.459,2.119,0,4.243-.416,6.374-1.248,2.13-.832,3.958-1.84,5.485-3.024v-6.356h-11.587Z" stroke-width="0"/>
  <path d="m217.33,50.952V.855h10.115v19.718h19.82V.855h10.115v50.096h-10.115v-21.904h-19.82v21.904h-10.115Z" stroke-width="0"/>
  <path d="m276.366,50.952V9.33h-14.865V.855h39.811v8.475h-14.831v41.622h-10.115Z" stroke-width="0"/>
</svg>